<svg xmlns="http://www.w3.org/2000/svg"  viewBox="0 0 48 48" width="48px" height="48px"><path fill="#ffe082" d="M44.098,30.76c0-1.548-1.136-2.839-2.646-3.138l0.056-4.805c0,0-0.154-4.444-0.5-5.76	c-0.474-1.802-3.152-7.804-10.956-7.728c-1.248,0.013-4.825,0.03-6.129,0.036c-0.308,0.001-0.593,0.144-0.781,0.388l-1.35,1.745	c0,0-4.066,0.949-6.435,4.471c-1.981,2.943-1.134,7.233-0.691,8.911l-0.021,2.729c-1.577,0.247-2.784,1.558-2.784,3.151	c0,1.5,0.954,2.883,2.784,3.207c0.46,7.229,7.971,12.959,13.348,12.959c5.379,0,12.893-5.734,13.349-12.966	C43.153,33.626,44.098,32.253,44.098,30.76z"/><path fill="#18193f" d="M32.31,27.693c0,1.016-0.831,1.847-1.847,1.847c-1.016,0-1.847-0.831-1.847-1.847	c0-1.016,0.831-1.847,1.847-1.847S32.31,26.677,32.31,27.693 M19.384,27.693c0-1.016-0.831-1.847-1.847-1.847	c-1.016,0-1.847,0.831-1.847,1.847c0,1.016,0.831,1.847,1.847,1.847C18.553,29.539,19.384,28.708,19.384,27.693"/><path fill="#18193f" d="M22.231,34h3.537c0.787,0,1.425,0.638,1.425,1.425v0c0,0.787-0.638,1.425-1.425,1.425h-3.537	c-0.787,0-1.425-0.638-1.425-1.425v0C20.807,34.638,21.445,34,22.231,34z"/><path fill="none" stroke="#18193f" stroke-linecap="round" stroke-linejoin="round" stroke-width="3" d="M38.685,22.591	c1.831,0,3.315,1.434,3.315,3.203s-1.484,3.203-3.315,3.203"/><path fill="none" stroke="#18193f" stroke-linecap="round" stroke-linejoin="round" stroke-width="3" d="M9.324,23.557	c-1.831,0-3.315,1.434-3.315,3.203s1.21,3.389,3.74,3.284"/><path fill="none" stroke="#18193f" stroke-linecap="round" stroke-linejoin="round" stroke-width="3" d="M17.537,40.744	c2.132,1.381,4.445,2.182,6.456,2.182c5.549,0,13.393-6.097,13.393-13.651l0.121-10.458"/><path fill="none" stroke="#18193f" stroke-linecap="round" stroke-linejoin="round" stroke-width="3" d="M30.935,6.024	c-1.388-0.603-3.062-0.979-5.07-0.959c-1.563,0.016-6.72,0.039-6.72,0.039l-1.676,2.165c0,0-4.133,0.965-6.54,4.544	c-2.548,3.786-0.489,9.786-0.489,9.786l0.226,0.976l-0.066,6.702c0,2.457,0.83,4.759,2.14,6.748"/><path fill="none" stroke="#18193f" stroke-linecap="round" stroke-linejoin="round" stroke-width="3" d="M15.863,18.501	c0.786-0.793,1.534-1.779,2.146-3.002c0,0,3.601,3.968,6.895,3.886c4.478-0.111,9.018-1.652,9.913-0.895	c0.895,0.757,2.652,2.476,2.652,2.476s0.117-5.821-0.469-8.048c-0.093-0.352-0.268-0.861-0.547-1.454"/></svg>